<svg height="448pt" viewBox="0 0 448 448" width="448pt" xmlns="http://www.w3.org/2000/svg"><path d="m264.265625 258.054688-17.128906 32.800781c-1.875 3.59375-6.136719 5.21875-9.929688 3.785156-38.675781-14.640625-69.203125-45.175781-83.832031-83.855469-1.433594-3.792968.191406-8.054687 3.785156-9.929687l32.800782-17.121094-10.34375-58.605469c-12.386719-6.972656-27.542969-6.84375-39.8125.332032-12.269532 7.175781-19.808594 20.324218-19.804688 34.539062.105469 92.738281 75.261719 167.894531 168 168 14.207031 0 27.351562-7.535156 34.527344-19.800781 7.175781-12.261719 7.308594-27.414063.34375-39.800781zm0 0"/><path d="m224 0c-123.710938 0-224 100.289062-224 224s100.289062 224 224 224 224-100.289062 224-224c-.140625-123.652344-100.347656-223.859375-224-224zm64 344c-101.574219-.113281-183.886719-82.425781-184-184 .003906-20.710938 11.4375-39.730469 29.726562-49.449219 18.292969-9.714843 40.453126-8.542969 57.617188 3.050781 1.796875 1.210938 3.023438 3.101563 3.398438 5.238282l12 67.894531c.605468 3.4375-1.082032 6.867187-4.175782 8.480469l-31.519531 16.464844c12.890625 29.140624 36.171875 52.433593 65.304687 65.335937l16.449219-31.558594c1.613281-3.09375 5.042969-4.78125 8.480469-4.175781l67.902344 12c2.132812.375 4.019531 1.597656 5.230468 3.390625 11.585938 17.164063 12.753907 39.324219 3.035157 57.609375-9.722657 18.289062-28.738281 29.71875-49.449219 29.71875zm0 0"/></svg>